# xmcd CD database file
# Copyright (C) 1996 Ti Kan
#
# Track frame offsets:
#	150
#	11507
#	25680
#	38437
#	53102
#	68055
#	87770
#	101820
#	115475
#	130000
#
# Disc length: 1974 seconds
#
# Revision: 2
# Processed by: cddbd v1.4PL0 Copyright (c) Steve Scherf et al.
# Submitted via: Gronk 1.4
#
DISCID=7407b40a
DTITLE=Marty Robbins - Biggest Hits
DYEAR=1900
DGENRE=country
TTITLE0=Ribbon Of Darkness
TTITLE1=An Occasional Rose
TTITLE2=She's Just A Drifter
TTITLE3=My Greatest Memory
TTITLE4=Padre
TTITLE5=El Paso
TTITLE6=Completely Out Of Love
TTITLE7=Jenny
TTITLE8=Teardrops In My Heart
TTITLE9=You Gave Me A Mountain
EXTD=
EXTT0=
EXTT1=
EXTT2=
EXTT3=
EXTT4=
EXTT5=
EXTT6=
EXTT7=
EXTT8=
EXTT9=
PLAYORDER=
